<?xml version="1.0" encoding="utf-8"?>
<!-- Generator: Adobe Illustrator 17.0.1, SVG Export Plug-In . SVG Version: 6.00 Build 0)  -->
<!DOCTYPE svg PUBLIC "-//W3C//DTD SVG 1.1//EN" "http://www.w3.org/Graphics/SVG/1.1/DTD/svg11.dtd">
<svg version="1.1" id="Layer_1" xmlns="http://www.w3.org/2000/svg" xmlns:xlink="http://www.w3.org/1999/xlink" x="0px" y="0px"
	 width="500px" height="500px" viewBox="0 0 500 500" enable-background="new 0 0 500 500" xml:space="preserve">
<circle fill="#FFFFFF" cx="250" cy="250" r="250"/>
<path fill="#47384D" d="M402.695,242.854c-6.263-5.621-14.382-8.437-24.356-8.437c-9.979,0-18.895,2.92-26.744,8.755
	c-7.855,5.841-13.163,14.168-15.919,24.993v-30.564h-76.73v5.731h17.511v138.591l-63.297,0.038V206.215h52.723v-7.189h-52.723
	v-63.908c0-16.776,1.598-28.958,4.793-36.547c3.195-7.589,9.848-11.384,19.971-11.384c13.581,0,17.706,9.056,12.382,27.161h-15.178
	c-1.598,6.391-2.396,12.981-2.396,19.771s2.728,12.781,8.188,17.974c5.455,5.192,13.243,7.789,23.365,7.789
	c10.117,0,18.236-2.927,24.365-8.787c6.122-5.854,9.187-14.642,9.187-26.362c0-11.714-4.931-22.031-14.778-30.956
	c-9.854-8.918-26.1-13.38-48.729-13.38c-34.35,0-58.852,9.923-73.493,29.757c-14.647,19.84-21.968,48.929-21.968,87.274v1.598H115.7
	v7.189h23.167V381.96h-21.968v7.189h241.383v-7.228h-22.605v-83.829c0-14.009,2.97-26.108,8.914-36.296
	c5.939-10.188,12.839-15.282,20.695-15.282c9.76,0,11.989,5.412,6.685,16.237h-11.462c-3.397,11.253-2.816,20.058,1.751,26.426
	c4.562,6.368,11.67,9.551,21.332,9.551c9.656,0,16.819-2.756,21.491-8.278c4.666-5.517,7.004-13.422,7.004-23.719
	C412.087,256.439,408.953,248.48,402.695,242.854z"/>
</svg>
