<svg xmlns="http://www.w3.org/2000/svg" width="500" height="500" viewBox="0 0 500 500"><circle fill="#FFF" cx="250" cy="250" r="250"/><path fill="#47384D" d="M402.695 242.854c-6.263-5.62-14.382-8.437-24.356-8.437-9.98 0-18.896 2.92-26.745 8.755-7.855 5.84-13.163 14.168-15.92 24.993V237.6h-76.73v5.732h17.512v138.59l-63.297.04V206.214h52.723v-7.19H213.16V135.12c0-16.776 1.598-28.958 4.793-36.547 3.195-7.588 9.848-11.383 19.97-11.383 13.582 0 17.707 9.056 12.383 27.16h-15.178c-1.598 6.392-2.396 12.982-2.396 19.772s2.728 12.78 8.188 17.973c5.455 5.192 13.243 7.79 23.365 7.79 10.117 0 18.236-2.928 24.365-8.788 6.122-5.854 9.187-14.642 9.187-26.362 0-11.714-4.93-22.03-14.778-30.956-9.855-8.918-26.1-13.38-48.73-13.38-34.35 0-58.852 9.923-73.493 29.757-14.647 19.84-21.968 48.93-21.968 87.274v1.598H115.7v7.19h23.167V381.96H116.9v7.19H358.28v-7.23h-22.605v-83.828c0-14.01 2.97-26.108 8.914-36.296 5.94-10.188 12.84-15.282 20.696-15.282 9.76 0 11.99 5.412 6.685 16.237h-11.46c-3.398 11.254-2.817 20.06 1.75 26.427 4.562 6.368 11.67 9.55 21.332 9.55 9.656 0 16.82-2.755 21.49-8.277 4.667-5.517 7.005-13.422 7.005-23.72 0-10.29-3.134-18.25-9.392-23.876z"/></svg>